<svg width="50" height="50" viewBox="0 0 50 50" fill="none" xmlns="http://www.w3.org/2000/svg">
<rect width="50" height="50" rx="25" fill="#57CE71"/>
<g clip-path="url(#clip0_818_2550)">
<path d="M26.718 27.9456L24.3911 35.138H26.7533L28.3046 30.3783V29.1091L27.4937 27.9456H26.718Z" fill="white"/>
<path d="M16.6347 27.9456H16.4584L12.8975 29.7437L14.9122 35.138H17.2391L15.3352 29.7789L16.6347 27.9456Z" fill="white"/>
<path d="M44.664 28.1925L44.9108 29.638C44.9242 29.7124 44.9101 29.7892 44.8712 29.854C44.8323 29.9189 44.7712 29.9674 44.6992 29.9906L42.9716 30.5194H42.8709C42.81 30.5249 42.7488 30.5126 42.6946 30.4842L41.8837 29.9553C40.5475 29.1243 39.4149 28.0037 38.5696 26.6765H33.9107L31.9363 29.0739V35.6719H29.7151V28.7213L28.2696 26.5707H16.1413L10.0772 29.6733V35.6719H7.86107V29.2149C7.8642 29.0828 7.88799 28.9519 7.93158 28.8271L9.51813 23.8912L8.4554 20.1892C8.3449 19.7746 8.2857 19.348 8.27911 18.919V14.3356C7.85225 14.5648 7.49561 14.9056 7.24724 15.3217C6.99887 15.7377 6.86809 16.2133 6.86885 16.6978V22.5152C7.27115 23.2687 7.41982 24.1318 7.2928 24.9765C7.16578 25.8212 6.76984 26.6024 6.16371 27.2043C5.79357 26.834 5.50025 26.3941 5.30058 25.9101C5.10092 25.4261 4.99885 24.9074 5.00025 24.3838C4.9929 23.7322 5.15058 23.0894 5.45858 22.5152V16.6636C5.45885 15.5883 5.8861 14.5572 6.64642 13.7969C7.40673 13.0366 8.43785 12.6093 9.51309 12.6091H31.478C32.2236 12.6179 32.9444 12.8789 33.5229 13.3494L39.9698 18.8495L41.4153 19.2726C42.0147 19.1668 42.5788 19.0963 43.0019 18.9905H43.0724C43.1287 18.9939 43.1833 19.0112 43.2313 19.0409C43.2792 19.0707 43.319 19.112 43.347 19.161C43.375 19.21 43.3903 19.2652 43.3916 19.3216C43.3929 19.378 43.3801 19.4339 43.3544 19.4841L43.1429 19.8004L44.7647 20.294C45.0467 20.3645 45.082 20.7523 44.8352 20.8581L43.7422 21.4232L44.5179 22.6209C44.6341 22.7849 44.6841 22.9868 44.6579 23.186L44.6227 23.5739C44.4059 25.1067 44.4181 26.6633 44.6589 28.1925H44.664Z" fill="white"/>
</g>
<defs>
<clipPath id="clip0_818_2550">
<rect width="40" height="40" fill="white" transform="translate(5 5)"/>
</clipPath>
</defs>
</svg>
