<svg width="50" height="50" viewBox="0 0 50 50" fill="none" xmlns="http://www.w3.org/2000/svg">
<rect width="50" height="50" rx="25" fill="#57CE71"/>
<path fill-rule="evenodd" clip-rule="evenodd" d="M40.082 34.8015C40.0771 34.7849 40.0709 34.7687 40.0636 34.753L39.0441 32.598C38.7611 31.6793 38.6165 30.7239 38.6152 29.763V22.9095C38.6163 21.9473 38.7608 20.9906 39.0441 20.0708L40.0636 17.9158C40.0711 17.9003 40.0772 17.8843 40.082 17.8678C40.2194 17.4244 40.0452 16.9568 39.6261 16.6497C39.1934 16.335 38.5931 16.2478 38.0544 16.4218L34.5352 17.5672C28.5692 16.4951 22.1397 16.4967 15.4269 17.572L11.9439 16.6265C11.4301 16.46 10.8465 16.5355 10.4209 16.8221C10.0661 17.0597 9.87086 17.4018 9.87086 17.7654C9.87058 17.8361 9.87783 17.9065 9.89249 17.9756L10.4009 20.4425C10.4355 20.6085 10.4652 20.7749 10.495 20.9398C10.5312 21.1424 10.5675 21.3423 10.6096 21.5373C10.7666 22.2382 10.8478 22.9538 10.8519 23.6718V29.0055C10.8478 29.7234 10.7665 30.4388 10.6096 31.1395C10.5675 31.3346 10.5312 31.5345 10.495 31.737C10.4652 31.9019 10.4355 32.0689 10.4009 32.2348L9.89303 34.6986C9.80109 35.1366 10.0012 35.5687 10.4214 35.8526C10.6405 35.9942 10.8884 36.0858 11.1471 36.1209C11.4059 36.156 11.6693 36.1338 11.9185 36.0557L15.4269 35.0967C22.3496 36.1893 28.7785 36.1909 34.5363 35.1021L38.0517 36.2459C38.5887 36.4194 39.1907 36.3315 39.6201 36.0169C40.0452 35.7131 40.2199 35.247 40.082 34.8015ZM32.5671 25.3366C32.5671 25.3366 31.2069 25.4443 30.2631 25.3124C28.0911 25.0144 26.07 23.5215 25.1765 23.0243C23.236 21.9467 22.4502 21.8821 21.4448 22.1622C19.8644 22.6056 18.938 23.7947 18.0229 25.3274H17.3414C17.8709 24.2074 19.892 20.5826 24.0705 19.7206C28.249 18.8586 32.7288 21.6359 32.5671 25.3366Z" fill="white"/>
</svg>
