<svg width="50" height="50" viewBox="0 0 50 50" fill="none" xmlns="http://www.w3.org/2000/svg">
<rect width="50" height="50" rx="25" fill="#57CE71"/>
<path d="M40.5879 28.2285C40.6501 28.3463 40.6629 28.4764 40.6244 28.6002C40.5859 28.724 40.4981 28.8352 40.3735 28.9177C39.1061 29.7578 38.0693 30.7885 37.3254 31.9481C36.5814 33.1077 36.1455 34.3724 36.0438 35.6663H32.9242C33.0351 33.3347 33.8144 31.052 35.2048 28.9855C36.61 28.3414 38.1852 27.9553 39.8106 27.8567C39.9737 27.847 40.1365 27.8778 40.2758 27.9445C40.4151 28.0113 40.5236 28.1107 40.5859 28.2285H40.5879ZM30.8034 23.6877C32.6023 21.0754 34.9512 18.7168 37.7523 16.7101C37.8877 16.6115 37.9732 16.4784 37.9933 16.3348C38.0133 16.1913 37.9665 16.047 37.8615 15.928C37.7565 15.809 37.6001 15.7234 37.4209 15.6867C37.2416 15.6499 37.0514 15.6645 36.8848 15.7277C31.2482 17.903 26.8076 21.3186 23.98 25.4354C24.7949 26.3769 25.5018 27.3725 26.0928 28.4105C27.2878 26.629 28.884 25.0294 30.8054 23.6877H30.8034ZM20.488 35.6663H23.6315C23.7224 33.6906 24.2561 31.7424 25.2086 29.9099C22.614 24.5326 16.828 20.2871 9.38997 18.7664C9.21063 18.7298 9.02037 18.7445 8.85376 18.8079C8.68715 18.8712 8.55523 18.979 8.48196 19.1117C8.4087 19.2443 8.39895 19.3931 8.45448 19.5309C8.51002 19.6687 8.62716 19.7864 8.78462 19.8626C15.9074 23.3082 20.2331 29.1861 20.488 35.6668V35.6663ZM15.8417 35.6663H18.9388C18.8225 32.7052 17.771 29.8121 15.8775 27.243C14.1793 26.3656 12.2556 25.7877 10.2409 25.5496C10.0704 25.5295 9.89623 25.5543 9.74586 25.62C9.59549 25.6857 9.47756 25.7886 9.41074 25.9124C9.34392 26.0362 9.33203 26.1738 9.37696 26.3035C9.42189 26.4331 9.52107 26.5474 9.65879 26.6282C13.3951 28.8143 15.6187 32.0821 15.8443 35.6663H15.8417ZM41.5192 21.3626C41.4474 21.232 41.3188 21.1253 41.1559 21.0615C40.993 20.9976 40.8064 20.9806 40.6291 21.0136C31.7739 22.65 25.5326 28.6287 25.1914 35.6663H31.3776C31.4962 32.9549 32.4539 30.306 34.1693 27.945C35.8846 25.5839 38.3068 23.5806 41.2298 22.1056C41.3827 22.0282 41.4957 21.9112 41.5486 21.7752C41.6016 21.6393 41.5912 21.4931 41.5192 21.3626Z" fill="white"/>
</svg>
